<svg width="18" height="12" viewBox="0 0 18 12" fill="none" xmlns="http://www.w3.org/2000/svg">
<path d="M1 5.25C0.585786 5.25 0.25 5.58579 0.25 6C0.25 6.41421 0.585786 6.75 1 6.75L1 5.25ZM17.2368 6.53033C17.5296 6.23744 17.5296 5.76256 17.2368 5.46967L12.4638 0.696699C12.1709 0.403806 11.696 0.403806 11.4031 0.696699C11.1102 0.989593 11.1102 1.46447 11.4031 1.75736L15.6458 6L11.4031 10.2426C11.1102 10.5355 11.1102 11.0104 11.4031 11.3033C11.696 11.5962 12.1709 11.5962 12.4638 11.3033L17.2368 6.53033ZM1 6.75L16.7064 6.75V5.25L1 5.25L1 6.75Z" fill="white"/>
</svg>
