<svg width="111" height="111" viewBox="0 0 111 111" fill="none" xmlns="http://www.w3.org/2000/svg">
<path d="M87.875 32.375C87.875 27.2875 83.7125 23.125 78.625 23.125H64.75V32.375H78.625V44.6312L62.53 64.75H46.25V41.625H27.75C17.5287 41.625 9.25 49.9037 9.25 60.125V74H18.5C18.5 81.6775 24.6975 87.875 32.375 87.875C40.0525 87.875 46.25 81.6775 46.25 74H66.97L87.875 47.8687V32.375ZM32.375 78.625C29.8312 78.625 27.75 76.5437 27.75 74H37C37 76.5437 34.9187 78.625 32.375 78.625Z" fill="white"/>
<path d="M23.125 27.75H46.25V37H23.125V27.75ZM87.875 60.125C80.1975 60.125 74 66.3225 74 74C74 81.6775 80.1975 87.875 87.875 87.875C95.5525 87.875 101.75 81.6775 101.75 74C101.75 66.3225 95.5525 60.125 87.875 60.125ZM87.875 78.625C85.3312 78.625 83.25 76.5438 83.25 74C83.25 71.4563 85.3312 69.375 87.875 69.375C90.4187 69.375 92.5 71.4563 92.5 74C92.5 76.5438 90.4187 78.625 87.875 78.625Z" fill="white"/>
</svg>
