<svg width="63" height="63" viewBox="0 0 63 63" fill="none" xmlns="http://www.w3.org/2000/svg">
<mask id="mask0_16_61" style="mask-type:alpha" maskUnits="userSpaceOnUse" x="5" y="3" width="55" height="55">
<path d="M9.1875 26.25L43.9346 49.4143C44.1414 49.552 44.383 49.6282 44.6314 49.634C44.8798 49.6398 45.1247 49.575 45.3377 49.4471L57.75 42M7.875 34.125V55.125V34.125ZM7.875 43.3125H17.0625L22.3125 35.4375L7.875 43.3125Z" stroke="white" stroke-width="4" stroke-linecap="round" stroke-linejoin="round"/>
<path d="M9.28988 16.6937C9.12273 16.5825 8.98334 16.4343 8.88245 16.2607C8.78155 16.0871 8.72183 15.8927 8.70788 15.6924C8.69394 15.492 8.72614 15.2912 8.80201 15.1053C8.87787 14.9194 8.99539 14.7533 9.1455 14.62L18.9368 5.91811C19.1521 5.72644 19.4246 5.61101 19.7121 5.58966C19.9996 5.56831 20.2862 5.64223 20.5275 5.79999L56.0503 29.0732C56.2337 29.1934 56.3841 29.3577 56.4878 29.5509C56.5914 29.7442 56.6449 29.9604 56.6435 30.1797C56.642 30.399 56.5857 30.6144 56.4795 30.8063C56.3734 30.9982 56.2209 31.1605 56.0359 31.2782L44.0344 38.917C43.8197 39.0536 43.5699 39.1248 43.3154 39.122C43.0609 39.1192 42.8128 39.0425 42.6011 38.9012L9.28988 16.6937Z" fill="white" stroke="white" stroke-width="4"/>
</mask>
<g mask="url(#mask0_16_61)">
<path d="M0 0H63V63H0V0Z" fill="#002B4A"/>
</g>
</svg>
