<svg width="94" height="96" viewBox="0 0 94 96" fill="none" xmlns="http://www.w3.org/2000/svg">
<g clip-path="url(#clip0_17_7)">
<path d="M78.7687 67.5C78.7687 70.8191 77.5917 74.0219 75.4624 76.4966C73.3331 78.9713 70.4007 80.5444 67.2255 80.9156C64.0503 81.2867 60.8548 80.4297 58.2493 78.5084C55.6438 76.5871 53.811 73.7361 53.101 70.5H40.899C40.1889 73.736 38.3561 76.587 35.7507 78.5082C33.1452 80.4295 29.9497 81.2864 26.7745 80.9153C23.5993 80.5442 20.6671 78.9711 18.5378 76.4964C16.4085 74.0218 15.2314 70.819 15.2314 67.5C15.2314 64.1809 16.4085 60.9782 18.5378 58.5035C20.6671 56.0289 23.5993 54.4557 26.7745 54.0846C29.9497 53.7135 33.1452 54.5704 35.7507 56.4917C38.3561 58.413 40.1889 61.2639 40.899 64.5H53.101C53.811 61.2639 55.6438 58.4128 58.2493 56.4915C60.8548 54.5702 64.0503 53.7133 67.2255 54.0844C70.4007 54.4555 73.3331 56.0287 75.4624 58.5034C77.5917 60.9781 78.7687 64.1809 78.7687 67.5ZM90.3209 42H80.2849L63.3536 16.875C62.8104 16.0768 62.0887 15.4275 61.2505 14.983C60.4124 14.5385 59.4829 14.3121 58.5419 14.3231C57.6009 14.3342 56.6765 14.5825 55.8483 15.0465C55.02 15.5106 54.3127 16.1767 53.7869 16.9875L47 27.6L40.2131 16.9875C39.6873 16.1767 38.98 15.5106 38.1517 15.0465C37.3235 14.5825 36.3991 14.3342 35.4581 14.3231C34.5171 14.3121 33.5876 14.5385 32.7495 14.983C31.9113 15.4275 31.1896 16.0768 30.6464 16.875L13.7151 42H3.67911C2.91314 42 2.17856 42.316 1.63694 42.8787C1.09532 43.4413 0.791046 44.2043 0.791046 45C0.791046 45.7956 1.09532 46.5587 1.63694 47.1213C2.17856 47.6839 2.91314 48 3.67911 48H90.3209C91.0869 48 91.8214 47.6839 92.3631 47.1213C92.9047 46.5587 93.209 45.7956 93.209 45C93.209 44.2043 92.9047 43.4413 92.3631 42.8787C91.8214 42.316 91.0869 42 90.3209 42Z" fill="#F7F7F7"/>
</g>
<defs>
<clipPath id="clip0_17_7">
<rect width="92.4179" height="96" fill="white" transform="translate(0.791046)"/>
</clipPath>
</defs>
</svg>
