<svg width="95" height="95" viewBox="0 0 95 95" fill="none" xmlns="http://www.w3.org/2000/svg">
<path d="M95 31.6666V27.7083H67.2917V31.6666H79.1667V35.6249H75.2083V43.5416H62.1458L56.2044 33.2499H39.0094L33.0719 43.5416H19.7917V35.6249H15.8333V31.6666H27.7083V27.7083H0V31.6666H11.875V35.6249H7.91667V55.4166H19.7917V51.4583H32.3277L33.1827 52.9387C27.97 55.582 23.5902 59.616 20.5282 64.5943C17.4662 69.5727 15.8413 75.3011 15.8333 81.1458C15.8333 81.6707 16.0419 82.1741 16.413 82.5452C16.7842 82.9164 17.2876 83.1249 17.8125 83.1249C18.3374 83.1249 18.8408 82.9164 19.212 82.5452C19.5831 82.1741 19.7917 81.6707 19.7917 81.1458C19.7985 75.9958 21.2403 70.9496 23.9553 66.5735C26.6702 62.1973 30.5509 58.6641 35.1619 56.3705L39.0094 63.0324H56.2044L60.0044 56.4497C64.572 58.7606 68.4105 62.2914 71.0942 66.6505C73.7778 71.0096 75.2018 76.0268 75.2083 81.1458C75.2083 81.6707 75.4168 82.1741 75.788 82.5452C76.1592 82.9164 76.6626 83.1249 77.1875 83.1249C77.7124 83.1249 78.2158 82.9164 78.587 82.5452C78.9581 82.1741 79.1667 81.6707 79.1667 81.1458C79.1598 75.3324 77.5533 69.633 74.5232 64.6717C71.4931 59.7104 67.1562 55.6786 61.9875 53.0178L62.886 51.4583H75.2083V55.4166H87.0833V35.6249H83.125V31.6666H95Z" fill="#F6F6F6"/>
</svg>
