<svg width="63" height="62" viewBox="0 0 63 62" fill="none" xmlns="http://www.w3.org/2000/svg">
<path d="M38.7798 2.37172C38.7799 1.95218 38.6789 1.54012 38.487 1.17761C38.2951 0.815092 38.0193 0.515099 37.6876 0.308246C37.356 0.101393 36.9804 -0.0049143 36.5993 0.000174479C36.2181 0.00526326 35.845 0.121565 35.518 0.337212L14.4864 14.2184H6.46331C2.89125 14.2184 0 17.3958 0 21.3321V40.3113C0 44.2428 2.88694 47.425 6.46331 47.425H14.4864L35.5137 61.3157C35.8408 61.5325 36.2143 61.6498 36.5961 61.6555C36.9779 61.6612 37.3543 61.5551 37.6866 61.3481C38.0189 61.1412 38.2952 60.8407 38.4873 60.4775C38.6794 60.1143 38.7804 59.7014 38.7798 59.2812V2.37172ZM56.9073 30.8075L63 37.5086L59.9536 40.8615L53.8609 34.1604L47.7681 40.8615L44.7218 37.5086L50.8145 30.8075L44.7218 24.1064L47.7681 20.7535L53.8609 27.4546L59.9579 20.7535L63 24.1064L56.9073 30.8075Z" fill="#F6F6F6"/>
</svg>
