<svg width="67" height="67" viewBox="0 0 67 67" fill="none" xmlns="http://www.w3.org/2000/svg">
<path d="M42.4732 43.0714C44.7847 43.0714 46.6607 44.9474 46.6607 47.2589V52.0494L46.6416 52.3078C45.8998 57.3974 41.3294 59.8429 33.6603 59.8429C26.0199 59.8429 21.3754 57.4262 20.3728 52.3964L20.3393 52.0446V47.2589C20.3393 44.9474 22.2153 43.0714 24.5268 43.0714H42.4732ZM43.6553 28.7143H58.0268C60.3383 28.7143 62.2143 30.5903 62.2143 32.9018V37.6923L62.1951 37.9507C61.4534 43.0403 56.883 45.4858 49.2139 45.4858L48.8119 45.481C48.443 44.1696 47.6765 43.0049 46.6179 42.1473C45.5594 41.2898 44.261 40.7816 42.9015 40.6929L42.4732 40.6786H40.267C41.5174 39.6703 42.5258 38.3946 43.2182 36.9453C43.9106 35.4959 44.2693 33.9098 44.2678 32.3036C44.2678 31.0449 44.0525 29.8389 43.6553 28.7143ZM8.97321 28.7143H23.3447C22.9475 29.8389 22.7321 31.0449 22.7321 32.3036C22.7321 35.4861 24.1152 38.3503 26.3118 40.3196L26.733 40.6786H24.5268C21.507 40.6786 18.961 42.7125 18.1857 45.4882L18.1067 45.4858C10.4663 45.4858 5.82181 43.069 4.81921 38.0392L4.78571 37.6875V32.9018C4.78571 30.5903 6.66171 28.7143 8.97321 28.7143ZM33.5 23.9286C35.7212 23.9286 37.8514 24.8109 39.422 26.3815C40.9926 27.9522 41.875 30.0824 41.875 32.3036C41.875 34.5247 40.9926 36.655 39.422 38.2256C37.8514 39.7962 35.7212 40.6786 33.5 40.6786C31.2788 40.6786 29.1486 39.7962 27.578 38.2256C26.0074 36.655 25.125 34.5247 25.125 32.3036C25.125 30.0824 26.0074 27.9522 27.578 26.3815C29.1486 24.8109 31.2788 23.9286 33.5 23.9286ZM49.0536 9.57141C51.2747 9.57141 53.405 10.4538 54.9756 12.0244C56.5462 13.595 57.4286 15.7252 57.4286 17.9464C57.4286 20.1676 56.5462 22.2978 54.9756 23.8684C53.405 25.439 51.2747 26.3214 49.0536 26.3214C46.8324 26.3214 44.7022 25.439 43.1315 23.8684C41.5609 22.2978 40.6786 20.1676 40.6786 17.9464C40.6786 15.7252 41.5609 13.595 43.1315 12.0244C44.7022 10.4538 46.8324 9.57141 49.0536 9.57141ZM17.9464 9.57141C20.1676 9.57141 22.2978 10.4538 23.8684 12.0244C25.4391 13.595 26.3214 15.7252 26.3214 17.9464C26.3214 20.1676 25.4391 22.2978 23.8684 23.8684C22.2978 25.439 20.1676 26.3214 17.9464 26.3214C15.7252 26.3214 13.595 25.439 12.0244 23.8684C10.4538 22.2978 9.57142 20.1676 9.57142 17.9464C9.57142 15.7252 10.4538 13.595 12.0244 12.0244C13.595 10.4538 15.7252 9.57141 17.9464 9.57141Z" fill="#002B4A"/>
</svg>
