<svg width="65" height="65" viewBox="0 0 65 65" fill="none" xmlns="http://www.w3.org/2000/svg">
<path fill-rule="evenodd" clip-rule="evenodd" d="M8.08641 2.30662C8.78503 1.60232 9.62393 1.05596 10.5475 0.703759C11.4711 0.351555 12.4583 0.201548 13.4436 0.263679C14.429 0.325809 15.39 0.598658 16.263 1.06414C17.136 1.52963 17.901 2.17712 18.5074 2.96372L25.6744 12.2598C26.988 13.965 27.4512 16.1862 26.9321 18.2825L24.7481 27.1109C24.6352 27.5682 24.6413 28.0471 24.7658 28.5013C24.8903 28.9555 25.129 29.3695 25.4588 29.703L35.2689 39.6078C35.5997 39.9414 36.0104 40.1828 36.461 40.3086C36.9116 40.4343 37.3868 40.4401 37.8402 40.3253L46.5803 38.1203C47.6049 37.8616 48.6744 37.8415 49.7078 38.0615C50.7412 38.2815 51.7115 38.7358 52.5455 39.3901L61.7527 46.6222C65.0627 49.2223 65.3661 54.1606 62.4035 57.1477L58.2751 61.3161C55.3204 64.2992 50.9045 65.6093 46.788 64.146C36.2519 60.4031 26.6856 54.3131 18.7989 46.3279C10.8905 38.3662 4.85872 28.7091 1.15103 18.0728C-0.294337 13.9207 1.0033 9.45806 3.95792 6.47494L8.08641 2.30662Z" fill="#F6F6F6"/>
</svg>
