<svg width="92" height="92" viewBox="0 0 92 92" fill="none" xmlns="http://www.w3.org/2000/svg">
<path d="M80.4809 26.45C80.4171 25.8058 80.191 25.1883 79.8236 24.6553C79.4562 24.1223 78.9596 23.6913 78.3802 23.4025L47.7135 8.06919C47.181 7.80269 46.5936 7.66394 45.9981 7.66394C45.4026 7.66394 44.8152 7.80269 44.2827 8.06919L13.616 23.4025C13.0382 23.6929 12.5431 24.1245 12.1766 24.6572C11.81 25.19 11.5839 25.8066 11.5192 26.45C11.477 26.8602 7.83535 67.7235 44.4437 84.0037C44.9328 84.2244 45.4634 84.3386 46 84.3386C46.5367 84.3386 47.0672 84.2244 47.5564 84.0037C84.1647 67.7235 80.523 26.864 80.4809 26.45ZM46 76.2719V46H21.1217C19.6333 40.5503 18.9311 34.9159 19.0363 29.2675L46 15.7857V46H70.7633C67.8538 56.5034 61.1877 68.9195 46 76.2719Z" fill="#002B4A"/>
</svg>
