<svg width="68" height="68" viewBox="0 0 68 68" fill="none" xmlns="http://www.w3.org/2000/svg">
<path d="M21.556 2.38C26.1673 1.12625 31.0675 0 34 0C36.9325 0 41.8328 1.12625 46.444 2.38C51.1615 3.655 55.9173 5.16375 58.7138 6.0775C59.883 6.46362 60.9196 7.17173 61.7044 8.12048C62.4893 9.06923 62.9906 10.2201 63.1508 11.441C65.6838 30.4683 59.806 44.5698 52.6745 53.8985C49.6504 57.8892 46.0445 61.4034 41.9773 64.3238C40.5709 65.3343 39.0808 66.223 37.5233 66.98C36.3333 67.541 35.054 68 34 68C32.946 68 31.671 67.541 30.4768 66.98C28.9192 66.223 27.4291 65.3343 26.0228 64.3238C21.9556 61.4033 18.3497 57.8891 15.3255 53.8985C8.19402 44.5698 2.31627 30.4683 4.84927 11.441C5.00944 10.2201 5.51076 9.06923 6.29562 8.12048C7.08048 7.17173 8.11706 6.46362 9.28627 6.0775C13.3458 4.74644 17.4369 3.51358 21.556 2.38Z" fill="#F6F6F6"/>
</svg>
