<svg width="73" height="73" viewBox="0 0 73 73" fill="none" xmlns="http://www.w3.org/2000/svg">
<rect x="15" y="46" width="5" height="3" fill="#F6F6F6"/>
<mask id="mask0_19_34" style="mask-type:alpha" maskUnits="userSpaceOnUse" x="7" y="4" width="62" height="62">
<path d="M10.6458 30.4167L50.9084 57.2579C51.148 57.4175 51.428 57.5058 51.7158 57.5125C52.0035 57.5192 52.2873 57.4441 52.5341 57.296L66.9167 48.6667M9.125 39.5417V63.8751V39.5417ZM9.125 50.1876H19.7708L25.8542 41.0626L9.125 50.1876Z" stroke="white" stroke-width="4" stroke-linecap="round" stroke-linejoin="round"/>
<path d="M10.7644 19.3435C10.5708 19.2145 10.4093 19.0429 10.2923 18.8417C10.1754 18.6405 10.1062 18.4152 10.0901 18.1831C10.0739 17.951 10.1112 17.7183 10.1991 17.5029C10.287 17.2874 10.4232 17.0951 10.5972 16.9405L21.9426 6.85741C22.1921 6.63532 22.5079 6.50157 22.841 6.47683C23.1742 6.45209 23.5062 6.53774 23.7858 6.72054L64.9472 33.688C65.1597 33.8272 65.334 34.0175 65.4541 34.2415C65.5741 34.4654 65.6362 34.7159 65.6345 34.97C65.6328 35.2241 65.5675 35.4738 65.4445 35.6961C65.3215 35.9185 65.1448 36.1065 64.9304 36.243L51.0239 45.0942C50.7752 45.2525 50.4857 45.335 50.1909 45.3318C49.896 45.3286 49.6084 45.2397 49.3632 45.076L10.7644 19.3435Z" fill="white" stroke="white" stroke-width="4"/>
</mask>
<g mask="url(#mask0_19_34)">
<path d="M0 0H73V73H0V0Z" fill="#F6F6F6"/>
</g>
</svg>
