<svg width="87" height="71" viewBox="0 0 87 71" fill="none" xmlns="http://www.w3.org/2000/svg">
<path d="M23.7273 71C20.4318 71 17.6307 69.8495 15.3239 67.5486C13.017 65.2477 11.8636 62.4537 11.8636 59.1667H7.90909C5.73409 59.1667 3.87282 58.3949 2.32527 56.8513C0.775091 55.3051 0 53.4472 0 51.2778V31.5556H43.5V15.7778C43.5 13.6083 44.2751 11.7518 45.8253 10.2082C47.3728 8.662 49.2341 7.88889 51.4091 7.88889H59.3182V3.94444C59.3182 2.82685 59.6978 1.88939 60.4571 1.13206C61.2137 0.377352 62.1523 0 63.2727 0H67.2273C68.3477 0 69.2863 0.377352 70.0429 1.13206C70.8022 1.88939 71.1818 2.82685 71.1818 3.94444V7.88889H73.3568C75.0705 7.88889 76.6193 8.38194 78.0034 9.36806C79.3875 10.3542 80.3432 11.669 80.8705 13.3125L86.6045 30.2736C86.7364 30.6681 86.8352 31.0783 86.9011 31.5043C86.967 31.9329 87 32.3773 87 32.8375V59.1667H75.1364C75.1364 62.4537 73.983 65.2477 71.6761 67.5486C69.3693 69.8495 66.5682 71 63.2727 71C59.9773 71 57.1761 69.8495 54.8693 67.5486C52.5625 65.2477 51.4091 62.4537 51.4091 59.1667H35.5909C35.5909 62.4537 34.4375 65.2477 32.1307 67.5486C29.8239 69.8495 27.0227 71 23.7273 71ZM23.7273 63.1111C24.8477 63.1111 25.7876 62.7324 26.5469 61.9751C27.3035 61.2204 27.6818 60.2843 27.6818 59.1667C27.6818 58.0491 27.3035 57.1129 26.5469 56.3582C25.7876 55.6009 24.8477 55.2222 23.7273 55.2222C22.6068 55.2222 21.667 55.6009 20.9077 56.3582C20.151 57.1129 19.7727 58.0491 19.7727 59.1667C19.7727 60.2843 20.151 61.2204 20.9077 61.9751C21.667 62.7324 22.6068 63.1111 23.7273 63.1111ZM63.2727 63.1111C64.3932 63.1111 65.3317 62.7324 66.0884 61.9751C66.8476 61.2204 67.2273 60.2843 67.2273 59.1667C67.2273 58.0491 66.8476 57.1129 66.0884 56.3582C65.3317 55.6009 64.3932 55.2222 63.2727 55.2222C62.1523 55.2222 61.2137 55.6009 60.4571 56.3582C59.6978 57.1129 59.3182 58.0491 59.3182 59.1667C59.3182 60.2843 59.6978 61.2204 60.4571 61.9751C61.2137 62.7324 62.1523 63.1111 63.2727 63.1111ZM51.4091 31.5556H78.6955L73.3568 15.7778H51.4091V31.5556ZM0 27.6111V21.6944H3.95455V13.8056H0V7.88889H39.5455V13.8056H35.5909V21.6944H39.5455V27.6111H0ZM9.88636 21.6944H16.8068V13.8056H9.88636V21.6944ZM22.7386 21.6944H29.6591V13.8056H22.7386V21.6944Z" fill="white"/>
</svg>
